<svg height="512pt" viewBox="0 0 512 512" width="512pt" xmlns="http://www.w3.org/2000/svg"><path d="m480 74.667969v266.664062h-8.105469l-11.949219-11.945312c-5.972656-5.972657-14.078124-9.386719-22.613281-9.386719h-128c-17.707031 0-32 14.292969-32 32v128c0 4.265625.855469 8.320312 2.347657 11.945312l-34.347657 9.386719v-490.664062zm0 0" fill="#eceff1"/><path d="m245.332031 10.667969v490.664062l-234.664062-64v-362.664062l53.332031-14.507813 106.667969-29.226562zm0 0" fill="#cfd8dc"/><path d="m170.667969 30.933594v214.398437c0 2.773438-1.066407 5.546875-3.203125 7.46875l-21.332032 21.332031c-1.917968 2.132813-4.691406 3.199219-7.464843 3.199219-2.773438 0-5.546875-1.066406-7.46875-3.199219l-13.867188-13.652343-13.867187 13.652343c-4.050782 4.265626-10.878906 4.265626-14.929688 0l-21.335937-21.332031c-2.132813-1.921875-3.199219-4.695312-3.199219-7.46875v-185.171875zm0 0" fill="#455a64"/><path d="m508.886719 408.449219-64-64c-2.007813-1.984375-4.714844-3.117188-7.554688-3.117188h-128c-5.886719 0-10.664062 4.78125-10.664062 10.667969v128c0 5.886719 4.777343 10.667969 10.664062 10.667969h192c5.890625 0 10.667969-4.78125 10.667969-10.667969v-64c0-2.835938-1.128906-5.546875-3.113281-7.550781zm0 0" fill="#2196f3"/><path d="m490.667969 480c0 17.671875-14.328125 32-32 32-17.675781 0-32-14.328125-32-32s14.324219-32 32-32c17.671875 0 32 14.328125 32 32zm0 0" fill="#607d8b"/><path d="m384 480c0 17.671875-14.328125 32-32 32s-32-14.328125-32-32 14.328125-32 32-32 32 14.328125 32 32zm0 0" fill="#607d8b"/><path d="m458.667969 512c-17.644531 0-32-14.355469-32-32s14.355469-32 32-32c17.640625 0 32 14.355469 32 32s-14.359375 32-32 32zm0-42.667969c-5.890625 0-10.667969 4.78125-10.667969 10.667969s4.777344 10.667969 10.667969 10.667969c5.886719 0 10.664062-4.78125 10.664062-10.667969s-4.777343-10.667969-10.664062-10.667969zm0 0"/><path d="m352 512c-17.644531 0-32-14.355469-32-32s14.355469-32 32-32 32 14.355469 32 32-14.355469 32-32 32zm0-42.667969c-5.886719 0-10.667969 4.78125-10.667969 10.667969s4.78125 10.667969 10.667969 10.667969 10.667969-4.78125 10.667969-10.667969-4.78125-10.667969-10.667969-10.667969zm0 0"/><path d="m501.332031 490.667969h-21.332031c-5.886719 0-10.667969-4.78125-10.667969-10.667969s4.78125-10.667969 10.667969-10.667969h10.667969v-48.917969l-57.75-57.746093h-112.917969v106.664062h10.667969c5.886719 0 10.664062 4.78125 10.664062 10.667969s-4.777343 10.667969-10.664062 10.667969h-21.335938c-5.886719 0-10.664062-4.78125-10.664062-10.667969v-128c0-5.886719 4.777343-10.667969 10.664062-10.667969h128c2.839844 0 5.546875 1.132813 7.554688 3.117188l64 64c1.984375 2.003906 3.113281 4.714843 3.113281 7.550781v64c0 5.886719-4.777344 10.667969-10.667969 10.667969zm0 0"/><path d="m437.332031 490.667969h-64c-5.886719 0-10.664062-4.78125-10.664062-10.667969s4.777343-10.667969 10.664062-10.667969h64c5.890625 0 10.667969 4.78125 10.667969 10.667969s-4.777344 10.667969-10.667969 10.667969zm0 0"/><path d="m458.667969 426.667969h-42.667969c-5.886719 0-10.667969-4.78125-10.667969-10.667969v-32c0-5.886719 4.78125-10.667969 10.667969-10.667969s10.667969 4.78125 10.667969 10.667969v21.332031h32c5.886719 0 10.664062 4.78125 10.664062 10.667969s-4.777343 10.667969-10.664062 10.667969zm0 0"/><path d="m245.332031 512c-5.886719 0-10.664062-4.777344-10.664062-10.667969v-490.664062c0-5.890625 4.777343-10.667969 10.664062-10.667969 5.890625 0 10.667969 4.777344 10.667969 10.667969v490.664062c0 5.890625-4.777344 10.667969-10.667969 10.667969zm0 0"/><path d="m160 426.667969c-5.886719 0-10.667969-4.78125-10.667969-10.667969v-64c0-5.886719 4.78125-10.667969 10.667969-10.667969s10.667969 4.78125 10.667969 10.667969v64c0 5.886719-4.78125 10.667969-10.667969 10.667969zm0 0"/><path d="m192 394.667969c-2.730469 0-5.460938-1.046875-7.550781-3.117188l-24.449219-24.46875-24.449219 24.449219c-4.160156 4.160156-10.921875 4.160156-15.082031 0s-4.160156-10.921875 0-15.082031l32-32c4.160156-4.160157 10.921875-4.160157 15.082031 0l32 32c4.160157 4.160156 4.160157 10.921875 0 15.082031-2.089843 2.089844-4.820312 3.136719-7.550781 3.136719zm0 0"/><path d="m138.667969 277.332031c-2.730469 0-5.460938-1.042969-7.554688-3.113281l-13.78125-13.804688-13.78125 13.785157c-4.160156 4.15625-10.921875 4.15625-15.082031 0l-21.332031-21.335938c-2.007813-1.984375-3.136719-4.691406-3.136719-7.53125v-181.332031c0-5.886719 4.777344-10.667969 10.667969-10.667969 5.886719 0 10.664062 4.78125 10.664062 10.667969v176.917969l10.667969 10.667969 13.78125-13.785157c4.160156-4.15625 10.921875-4.15625 15.082031 0l13.804688 13.785157 10.664062-10.667969v-198.25c0-5.890625 4.78125-10.667969 10.667969-10.667969s10.667969 4.777344 10.667969 10.667969v202.664062c0 2.839844-1.132813 5.546875-3.117188 7.554688l-21.332031 21.332031c-2.089844 2.070312-4.820312 3.113281-7.550781 3.113281zm0 0"/><path d="m245.332031 512c-.9375 0-1.875-.128906-2.792969-.382812l-234.667968-64c-4.648438-1.261719-7.871094-5.460938-7.871094-10.285157v-362.664062c0-4.824219 3.222656-9.023438 7.871094-10.285157l234.667968-64c1.835938-.488281 3.777344-.488281 5.609376 0l234.667968 64c4.628906 1.261719 7.851563 5.460938 7.851563 10.285157v259.667969c0 5.886718-4.78125 10.667968-10.667969 10.667968s-10.667969-4.78125-10.667969-10.667968v-251.519532l-224-61.097656-224 61.097656v346.367188l224 61.097656 21.25-5.78125c5.652344-1.578125 11.5625 1.792969 13.097657 7.488281 1.558593 5.675781-1.792969 11.542969-7.488282 13.101563l-24.042968 6.546875c-.9375.234375-1.875.363281-2.816407.363281zm0 0"/></svg>