<?xml version="1.0"?>
<svg xmlns="http://www.w3.org/2000/svg" xmlns:xlink="http://www.w3.org/1999/xlink" viewBox="0 0 64 64" width="512" height="512"><defs><linearGradient id="New_Gradient_Swatch_3" x1="31.789" y1="64.18" x2="32.189" y2="3.348" gradientUnits="userSpaceOnUse"><stop offset="0" stop-color="#006df0"/><stop offset="1" stop-color="#00e7f0"/></linearGradient><linearGradient id="New_Gradient_Swatch_3-2" x1="39.911" y1="64.234" x2="40.312" y2="3.401" xlink:href="#New_Gradient_Swatch_3"/><linearGradient id="New_Gradient_Swatch_3-3" x1="47.886" y1="64.286" x2="48.286" y2="3.454" xlink:href="#New_Gradient_Swatch_3"/><linearGradient id="New_Gradient_Swatch_3-4" x1="39.885" y1="64.233" x2="40.285" y2="3.401" xlink:href="#New_Gradient_Swatch_3"/><linearGradient id="New_Gradient_Swatch_3-5" x1="47.859" y1="64.286" x2="48.26" y2="3.453" xlink:href="#New_Gradient_Swatch_3"/><linearGradient id="New_Gradient_Swatch_3-6" x1="39.859" y1="64.233" x2="40.259" y2="3.401" xlink:href="#New_Gradient_Swatch_3"/><linearGradient id="New_Gradient_Swatch_3-7" x1="47.833" y1="64.286" x2="48.233" y2="3.453" xlink:href="#New_Gradient_Swatch_3"/></defs><g id="Package-2" data-name="Package"><path d="M61.354,13.065l-29-11a.993.993,0,0,0-.708,0l-29,11A1,1,0,0,0,2,14V50a1,1,0,0,0,.642.934l29,11.14a1,1,0,0,0,.713,0l29-11.04A1,1,0,0,0,62,50.1V14A1,1,0,0,0,61.354,13.065ZM32,4.069,58.181,14,32,23.931l-7.953-3.017L36.494,16.2a1,1,0,0,0,0-1.87l-7.46-2.83a1,1,0,0,0-.709,0L13.773,17.017,5.819,14ZM15,19.621l5,1.9V36.457l-5-1.915Zm1.592-1.535L28.68,13.5l4.639,1.76L21.227,19.844ZM4,15.449l9,3.414V35.23a1,1,0,0,0,.643.934l7,2.68A1,1,0,0,0,22,37.91V22.276l9,3.414V59.684L4,49.313Zm29,44.24v-34L60,15.449V49.411Z" style="fill:url(#New_Gradient_Swatch_3)"/><path d="M42.643,50.019l-6.014,2.289a1,1,0,0,0,.355,1.935.988.988,0,0,0,.356-.066l6.014-2.289a1,1,0,1,0-.711-1.869Z" style="fill:url(#New_Gradient_Swatch_3-2)"/><path d="M48.637,47.737l-2.013.766a1,1,0,0,0,.355,1.935.988.988,0,0,0,.356-.066l2.013-.766a1,1,0,1,0-.711-1.869Z" style="fill:url(#New_Gradient_Swatch_3-3)"/><path d="M42.643,46.019l-6.014,2.289a1,1,0,0,0,.355,1.935.988.988,0,0,0,.356-.066l6.014-2.289a1,1,0,1,0-.711-1.869Z" style="fill:url(#New_Gradient_Swatch_3-4)"/><path d="M48.637,43.737l-2.013.766a1,1,0,0,0,.355,1.935.988.988,0,0,0,.356-.066l2.013-.766a1,1,0,1,0-.711-1.869Z" style="fill:url(#New_Gradient_Swatch_3-5)"/><path d="M42.643,42.019l-6.014,2.289a1,1,0,0,0,.355,1.935.988.988,0,0,0,.356-.066l6.014-2.289a1,1,0,1,0-.711-1.869Z" style="fill:url(#New_Gradient_Swatch_3-6)"/><path d="M48.637,39.737l-2.013.766a1,1,0,0,0,.355,1.935.988.988,0,0,0,.356-.066l2.013-.766a1,1,0,1,0-.711-1.869Z" style="fill:url(#New_Gradient_Swatch_3-7)"/></g></svg>
