<?xml version="1.0" encoding="iso-8859-1"?>
<!-- Generator: Adobe Illustrator 21.0.0, SVG Export Plug-In . SVG Version: 6.00 Build 0)  -->
<svg version="1.1" id="Capa_1" xmlns="http://www.w3.org/2000/svg" xmlns:xlink="http://www.w3.org/1999/xlink" x="0px" y="0px"
	 viewBox="0 0 512 512" style="enable-background:new 0 0 512 512;" xml:space="preserve">
<rect x="122.6" y="35.701" style="fill:#FD982C;" width="351.03" height="336.03"/>
<rect x="299" y="35.701" style="fill:#FA502E;" width="174.63" height="336.03"/>
<rect x="283.11" y="35.647" style="fill:#FDDA50;" width="30" height="123.09"/>
<g>
	<polygon style="fill:#FABE3D;" points="442.335,263.042 397.977,218.683 354.063,262.597 375.276,283.81 382.977,276.11 
		382.977,334.509 412.977,334.509 412.977,276.11 421.122,284.255 	"/>
	<polygon style="fill:#FABE3D;" points="255.095,262.597 276.308,283.81 284.008,276.11 284.008,334.509 314.008,334.509 
		314.008,276.11 322.153,284.255 343.744,263.042 299.008,218.683 	"/>
</g>
<g>
	<polygon style="fill:#FD982C;" points="442.335,263.042 397.977,218.683 354.063,262.597 375.276,283.81 382.977,276.11 
		382.977,334.509 412.977,334.509 412.977,276.11 421.122,284.255 	"/>
	<polygon style="fill:#FD982C;" points="299.001,334.509 314.008,334.509 314.008,276.11 322.153,284.255 343.744,263.042 
		299.008,218.683 	"/>
</g>
<rect x="299" y="35.647" style="fill:#FABE3D;" width="14.11" height="123.09"/>
<rect x="84.23" y="355.739" style="fill:#3AAAFF;" width="427.77" height="30"/>
<rect x="299" y="355.739" style="fill:#006EFF;" width="213" height="30"/>
<g>
	<path style="fill:#0050C3;" d="M201.82,372.165c-11.841-10.743-27.163-16.236-43.125-15.455
		c-15.969,0.776-30.68,7.725-41.423,19.566c-10.743,11.841-16.231,27.156-15.455,43.125l0,0c0.776,15.969,7.725,30.68,19.565,41.423
		c11.104,10.075,25.262,15.528,40.151,15.528c0.987,0,1.981-0.024,2.974-0.072c32.965-1.603,58.48-29.726,56.878-62.691
		C220.609,397.619,213.661,382.908,201.82,372.165z"/>
	<path style="fill:#0050C3;" d="M494.413,413.588c-0.776-15.969-7.726-30.68-19.566-41.423
		c-11.841-10.743-27.158-16.232-43.125-15.455c-15.969,0.776-30.68,7.725-41.423,19.566c-10.742,11.841-16.231,27.156-15.455,43.125
		c1.555,31.981,28.069,56.951,59.751,56.95c0.975,0,1.956-0.023,2.94-0.071C470.499,474.676,496.015,446.553,494.413,413.588z"/>
</g>
<path style="fill:#0040A0;" d="M494.413,413.588c-0.776-15.969-7.726-30.68-19.566-41.423
	c-11.841-10.743-27.158-16.232-43.125-15.455c-15.969,0.776-30.68,7.725-41.423,19.566c-10.742,11.841-16.231,27.156-15.455,43.125
	c1.555,31.981,28.069,56.951,59.751,56.95c0.975,0,1.956-0.023,2.94-0.071C470.499,474.676,496.015,446.553,494.413,413.588z"/>
<g>
	<rect y="263.669" style="fill:#CB072C;" width="85" height="30"/>
	<rect y="203.659" style="fill:#CB072C;" width="137" height="30"/>
	<rect y="143.659" style="fill:#CB072C;" width="207" height="30"/>
</g>
<g>
</g>
<g>
</g>
<g>
</g>
<g>
</g>
<g>
</g>
<g>
</g>
<g>
</g>
<g>
</g>
<g>
</g>
<g>
</g>
<g>
</g>
<g>
</g>
<g>
</g>
<g>
</g>
<g>
</g>
</svg>
